<svg width="20" height="20" viewBox="0 0 20 20" fill="none" xmlns="http://www.w3.org/2000/svg">
<g id="ph:funnel">
<path id="Vector" d="M8.74989 18.2109C8.54554 18.2089 8.34463 18.158 8.16396 18.0625C7.96327 17.957 7.7953 17.7985 7.67825 17.6044C7.56119 17.4102 7.49951 17.1877 7.49989 16.9609V10.8672L2.35927 5.21875C2.19866 5.03819 2.09346 4.81518 2.05625 4.57641C2.01905 4.33763 2.05142 4.09319 2.14949 3.87232C2.24756 3.65146 2.40718 3.46352 2.60926 3.33099C2.81133 3.19846 3.04731 3.12694 3.28896 3.125H16.7108C16.9525 3.12694 17.1885 3.19846 17.3905 3.33099C17.5926 3.46352 17.7522 3.65146 17.8503 3.87232C17.9484 4.09319 17.9807 4.33763 17.9435 4.57641C17.9063 4.81518 17.8011 5.03819 17.6405 5.21875L12.4999 10.8672V15.2891C12.5006 15.4946 12.4503 15.6972 12.3535 15.8785C12.2567 16.0599 12.1164 16.2144 11.9452 16.3281L9.44521 18C9.23943 18.1376 8.99744 18.211 8.74989 18.2109ZM3.28896 4.375L8.42177 10.0234C8.63207 10.2542 8.74903 10.555 8.74989 10.8672V16.9609L11.2499 15.2891V10.8672C11.2508 10.555 11.3677 10.2542 11.578 10.0234L16.7108 4.375H3.28896Z" fill="white"/>
</g>
</svg>
